<?xml version="1.0" encoding="utf-8"?>
<!-- Generator: Adobe Illustrator 24.0.2, SVG Export Plug-In . SVG Version: 6.00 Build 0)  -->
<svg version="1.1" id="Layer_1" xmlns="http://www.w3.org/2000/svg" xmlns:xlink="http://www.w3.org/1999/xlink" x="0px" y="0px"
	 viewBox="0 0 75 75" style="enable-background:new 0 0 75 75;" xml:space="preserve">
<style type="text/css">
	.st0{fill:url(#SVGID_1_);stroke:#295B74;stroke-miterlimit:10;}
	.st1{fill:url(#SVGID_2_);stroke:#295B74;stroke-width:0.25;stroke-miterlimit:10;}
	.st2{fill:url(#SVGID_3_);stroke:#295B74;stroke-width:0.25;stroke-miterlimit:10;}
	.st3{fill:url(#SVGID_4_);stroke:#295B74;stroke-width:0.25;stroke-miterlimit:10;}
	.st4{fill:url(#SVGID_5_);}
</style>
<g>
	<radialGradient id="SVGID_1_" cx="37.5" cy="37.5" r="30" gradientUnits="userSpaceOnUse">
		<stop  offset="1.065558e-07" style="stop-color:#3E88AE"/>
		<stop  offset="0.3045" style="stop-color:#3E88AE"/>
		<stop  offset="0.4701" style="stop-color:#3C83A7"/>
		<stop  offset="0.7038" style="stop-color:#357595"/>
		<stop  offset="0.977" style="stop-color:#2A5D77"/>
		<stop  offset="1" style="stop-color:#295B74"/>
	</radialGradient>
	<circle class="st0" cx="37.5" cy="37.5" r="30"/>
	
		<linearGradient id="SVGID_2_" gradientUnits="userSpaceOnUse" x1="142.283" y1="-455.2091" x2="129.9214" y2="-388.0215" gradientTransform="matrix(-0.9986 5.233677e-02 5.233677e-02 0.9986 210.0284 450.3983)">
		<stop  offset="0" style="stop-color:#244F65"/>
		<stop  offset="0.2852" style="stop-color:#224A5F"/>
		<stop  offset="0.4953" style="stop-color:#1F4457"/>
		<stop  offset="0.5615" style="stop-color:#1E4153"/>
		<stop  offset="1" style="stop-color:#152D3A"/>
	</linearGradient>
	<path class="st1" d="M57.8,66.9l7.6-4.7c-0.4-0.7-0.1-1-1.2-2.1c-13-11.7-13.9-32.7-15.5-51.6c-0.7-0.6-2.6-3.1-3.3-3.7
		c-0.9,12.1-1.2,21.2-0.4,30.1C46,45.8,49.8,55.5,57.8,66.9z"/>
	
		<linearGradient id="SVGID_3_" gradientUnits="userSpaceOnUse" x1="-632.0017" y1="-414.6302" x2="-644.3633" y2="-347.4427" gradientTransform="matrix(0.9986 5.233677e-02 -5.233677e-02 0.9986 640.3189 450.3983)">
		<stop  offset="0" style="stop-color:#244F65"/>
		<stop  offset="0.2852" style="stop-color:#224A5F"/>
		<stop  offset="0.4953" style="stop-color:#1F4457"/>
		<stop  offset="1" style="stop-color:#152D3A"/>
	</linearGradient>
	<path class="st2" d="M17.2,66.9l-7.6-4.7c0.4-0.7,0.1-1,1.2-2.1c13-11.7,13.9-32.7,15.5-51.6c0.7-0.6,2.6-3.1,3.3-3.7
		c0.9,12.1,1.2,21.2,0.4,30.1C29,45.8,25.2,55.5,17.2,66.9z"/>
	<linearGradient id="SVGID_4_" gradientUnits="userSpaceOnUse" x1="47.3924" y1="4.3843" x2="34.7747" y2="72.9639">
		<stop  offset="4.475343e-07" style="stop-color:#244F65"/>
		<stop  offset="0.2852" style="stop-color:#224A5F"/>
		<stop  offset="0.4953" style="stop-color:#1F4457"/>
		<stop  offset="0.5615" style="stop-color:#1E4153"/>
		<stop  offset="1" style="stop-color:#152D3A"/>
	</linearGradient>
	<path class="st3" d="M42,43.7c-2.4-16.4-1.5-24.5-1.5-38.8c-1.5,0-1.5,0-3,0s-1.5,0-3,0c0.1,14.3,1,22.4-1.5,38.8
		c-1.4,9.7-6.4,18.8-6.6,23.9l11.1,2.5l11.1-2.5C48.4,62.5,43.4,53.4,42,43.7z"/>
	<linearGradient id="SVGID_5_" gradientUnits="userSpaceOnUse" x1="13.8489" y1="8.3973" x2="61.1511" y2="66.6027">
		<stop  offset="4.475343e-07" style="stop-color:#3E88AE"/>
		<stop  offset="0.1172" style="stop-color:#418AAF"/>
		<stop  offset="0.1998" style="stop-color:#4A90B4"/>
		<stop  offset="0.2718" style="stop-color:#5A9ABB"/>
		<stop  offset="0.3376" style="stop-color:#70A9C6"/>
		<stop  offset="0.3988" style="stop-color:#8CBCD4"/>
		<stop  offset="0.4246" style="stop-color:#9AC5DB"/>
		<stop  offset="0.4676" style="stop-color:#87B8D2"/>
		<stop  offset="0.542" style="stop-color:#6CA7C5"/>
		<stop  offset="0.6238" style="stop-color:#5899BB"/>
		<stop  offset="0.7155" style="stop-color:#498FB3"/>
		<stop  offset="0.8251" style="stop-color:#418AAF"/>
		<stop  offset="1" style="stop-color:#3E88AE"/>
	</linearGradient>
	<path class="st4" d="M37.5,0C16.8,0,0,16.8,0,37.5S16.8,75,37.5,75S75,58.2,75,37.5S58.2,0,37.5,0z M37.5,67.5
		c-16.6,0-30-13.4-30-30s13.4-30,30-30s30,13.4,30,30S54.1,67.5,37.5,67.5z"/>
</g>
</svg>
