<svg id="Layer_1" data-name="Layer 1" xmlns="http://www.w3.org/2000/svg" xmlns:xlink="http://www.w3.org/1999/xlink" viewBox="0 0 629.7 211.58"><defs><style>.cls-1{fill:url(#Gradiente_sem_nome_12);}.cls-2{fill:url(#Gradiente_sem_nome_3);}.cls-3{fill:url(#Gradiente_sem_nome_2);}.cls-4{fill:url(#Gradiente_sem_nome_12-2);}.cls-5{fill:url(#Gradiente_sem_nome_12-3);}.cls-6{fill:url(#Gradiente_sem_nome_12-4);}.cls-7{fill:url(#Gradiente_sem_nome_38);}.cls-8{fill:url(#Gradiente_sem_nome_12-5);}.cls-9{fill:url(#Gradiente_sem_nome_37);}</style><linearGradient id="Gradiente_sem_nome_12" x1="43.54" y1="223.84" x2="80.31" y2="44.6" gradientUnits="userSpaceOnUse"><stop offset="0" stop-color="#0047ab"/><stop offset="0.2" stop-color="#2f7192"/><stop offset="0.59" stop-color="#84bd66"/><stop offset="0.87" stop-color="#b9ed4a"/><stop offset="1" stop-color="#ceff3f"/></linearGradient><linearGradient id="Gradiente_sem_nome_3" x1="173.67" y1="243.11" x2="252.82" y2="50.6" gradientUnits="userSpaceOnUse"><stop offset="0" stop-color="#0047ab"/><stop offset="0.14" stop-color="#044ba9"/><stop offset="0.28" stop-color="#1055a3"/><stop offset="0.42" stop-color="#246798"/><stop offset="0.56" stop-color="#3f808a"/><stop offset="0.7" stop-color="#63a077"/><stop offset="0.84" stop-color="#8fc760"/><stop offset="0.97" stop-color="#c2f545"/><stop offset="1" stop-color="#ceff3f"/></linearGradient><linearGradient id="Gradiente_sem_nome_2" x1="378.21" y1="238.92" x2="380.77" y2="85.73" gradientUnits="userSpaceOnUse"><stop offset="0" stop-color="#0047ab"/><stop offset="0.16" stop-color="#1a5f9d"/><stop offset="0.49" stop-color="#5e9b7a"/><stop offset="0.98" stop-color="#cafb41"/><stop offset="1" stop-color="#ceff3f"/></linearGradient><linearGradient id="Gradiente_sem_nome_12-2" x1="448.12" y1="250.39" x2="495.1" y2="4.78" xlink:href="#Gradiente_sem_nome_12"/><linearGradient id="Gradiente_sem_nome_12-3" x1="219.4" y1="241.59" x2="162.72" y2="88.39" xlink:href="#Gradiente_sem_nome_12"/><linearGradient id="Gradiente_sem_nome_12-4" x1="290.16" y1="249.58" x2="232.46" y2="76.47" xlink:href="#Gradiente_sem_nome_12"/><linearGradient id="Gradiente_sem_nome_38" x1="290.35" y1="177.33" x2="337.84" y2="94.61" gradientUnits="userSpaceOnUse"><stop offset="0.12" stop-color="#212121"/><stop offset="0.23" stop-color="#272727"/><stop offset="0.36" stop-color="#373737"/><stop offset="0.51" stop-color="#515151"/><stop offset="0.61" stop-color="#666"/><stop offset="0.99" stop-color="#ceff3f"/></linearGradient><linearGradient id="Gradiente_sem_nome_12-5" x1="427.73" y1="152.94" x2="536.49" y2="49.28" xlink:href="#Gradiente_sem_nome_12"/><linearGradient id="Gradiente_sem_nome_37" x1="575.65" y1="227.15" x2="593.52" y2="26.98" gradientUnits="userSpaceOnUse"><stop offset="0.06" stop-color="#2d6f93"/><stop offset="0.3" stop-color="#529080"/><stop offset="0.83" stop-color="#afe44f"/><stop offset="1" stop-color="#ceff3f"/></linearGradient></defs><title>LOGO_SISU</title><path class="cls-1" d="M12.54,161.8c2.68,2.12,5.65,4.27,8.91,6.48a78.47,78.47,0,0,0,10.79,6A71.9,71.9,0,0,0,45,178.77a61.51,61.51,0,0,0,15,1.73,48.45,48.45,0,0,0,11.8-1.44A31.78,31.78,0,0,0,82,174.6a24.13,24.13,0,0,0,7.33-7.91,23.43,23.43,0,0,0,2.88-12.08A23.91,23.91,0,0,0,89.05,142a29.19,29.19,0,0,0-8.35-8.78A56.42,56.42,0,0,0,68.77,127q-6.76-2.59-14.24-5.18-9.21-3.15-18.55-6.9a64.81,64.81,0,0,1-16.83-9.78A46.36,46.36,0,0,1,6.93,89.75Q2.17,80.41,2.18,66A52.73,52.73,0,0,1,7.65,41.57a50.47,50.47,0,0,1,15-17.69A68.57,68.57,0,0,1,44.46,13.24,93.56,93.56,0,0,1,70.64,9.65a102.45,102.45,0,0,1,17.69,1.44A119.8,119.8,0,0,1,103,14.54a80,80,0,0,1,10.93,4.17,42.65,42.65,0,0,1,6.75,3.88q8.05,4.89,8.06,12.94,0,3.47-3,9.35a50.78,50.78,0,0,1-8.49,11.65A87.73,87.73,0,0,0,98.54,45.6a58.23,58.23,0,0,0-34.81-4.17,33.1,33.1,0,0,0-9.92,3.45,21.09,21.09,0,0,0-7.33,6.62Q43.6,55.67,43.6,62.28a18.91,18.91,0,0,0,2.88,10.5,27,27,0,0,0,7.76,7.77A60.08,60.08,0,0,0,65.6,86.44Q72.08,89,79,91.62,88.18,95.07,97.67,99a67.5,67.5,0,0,1,17.26,10.21,49.72,49.72,0,0,1,12.66,15.67q4.89,9.36,4.89,23.44,0,15.25-5.32,26.9a56.06,56.06,0,0,1-14.82,19.7A62.72,62.72,0,0,1,89.48,207a101.08,101.08,0,0,1-29.2,4q-20.43,0-33.36-4.17T8.22,199.2a22.42,22.42,0,0,1-5.75-5.47,11.87,11.87,0,0,1-2.3-7.19q0-4.89,3.88-11.79A111.22,111.22,0,0,1,12.54,161.8Z" transform="translate(-0.17 0.13)"/><path class="cls-2" d="M295.27,207.54H264.79l-23.3-62.42-26.75,62.42H187.13L136.79,72.64a77.06,77.06,0,0,1,10.79-2.73,55.81,55.81,0,0,1,9.63-1q8.91,0,15.1,3.74t9.35,12.65L207.55,163l21.54-50.51L213,72.06a68,68,0,0,1,10.21-2.44,62.33,62.33,0,0,1,9.35-.72,21.71,21.71,0,0,1,12.8,3.74q5.32,3.73,7.91,12.08L278,160.08l18.69-65q3.45-12.64,8.92-19.41T322,68.9a50.71,50.71,0,0,1,10.5,1,64.79,64.79,0,0,1,9.35,2.73Z" transform="translate(-0.17 0.13)"/><path class="cls-3" d="M401.41,24q0,9.21-6.19,15a22.14,22.14,0,0,1-29.77,0q-6-5.76-6-15a20.2,20.2,0,0,1,6-15.1,21.73,21.73,0,0,1,29.77,0A20,20,0,0,1,401.41,24Zm-.29,183.79a17.09,17.09,0,0,1-5.18.87c-2.69.19-5.56.28-8.63.28A48.66,48.66,0,0,1,377,208a18.45,18.45,0,0,1-7.91-3.74,18.13,18.13,0,0,1-5.18-7.34A31.52,31.52,0,0,1,362,185.1v-115q0-.28,4.32-.72a88.65,88.65,0,0,1,8.91-.43,50.36,50.36,0,0,1,9.21.86,22.91,22.91,0,0,1,8.34,3.31,17.83,17.83,0,0,1,6,6.9q2.3,4.47,2.3,11.65Z" transform="translate(-0.17 0.13)"/><path class="cls-4" d="M529.69,41.57a39,39,0,0,0-12.23-8,41.33,41.33,0,0,0-16.53-3.16q-10.94,0-17.41,5.75t-6.47,19.56V69.19h46V98.81h-46V206.1H437.93V56.82q0-27.9,14.93-42.43T495.17-.13A97.51,97.51,0,0,1,516,2.17a51.12,51.12,0,0,1,17.4,6.9q7.19,4.89,7.19,12.08,0,4-3.45,9.78A86.83,86.83,0,0,1,529.69,41.57Z" transform="translate(-0.17 0.13)"/><path class="cls-5" d="M207.66,162.69l-.11.26L181.66,85.29q-3.16-8.91-9.35-12.65t-15.1-3.74a55.81,55.81,0,0,0-9.63,1,77.06,77.06,0,0,0-10.79,2.73l50.34,134.9h27.61l4.38-10.22Z" transform="translate(-0.17 0.13)"/><path class="cls-6" d="M293.82,207.54l-15.76-47.63,0,.17L265.52,122,252.21,81.79a20.26,20.26,0,0,0-6.84-9.15,21.71,21.71,0,0,0-12.8-3.74,62.33,62.33,0,0,0-9.35.72A68,68,0,0,0,213,72.06l15.08,39.38h0l13,33,.4.68,23.3,62.42Z" transform="translate(-0.17 0.13)"/><path class="cls-7" d="M399.4,24q0,9.21-6.18,15a22.14,22.14,0,0,1-29.77,0q-6-5.76-6-15a20.18,20.18,0,0,1,6-15.1,21.73,21.73,0,0,1,29.77,0A20,20,0,0,1,399.4,24Z" transform="translate(-0.17 0.13)"/><polygon class="cls-8" points="476.93 98.94 522.9 98.94 522.9 69.32 476.95 69.32 476.93 98.94"/><path class="cls-9" d="M545.77,186.22A50,50,0,0,1,543.16,174q-.58-6.37-.58-12.76V26.72c1.35-.19,2.8-.39,4.35-.58,1.35-.19,2.8-.34,4.35-.44s3.09-.14,4.64-.14a50.34,50.34,0,0,1,9.28.87,21.65,21.65,0,0,1,8.41,3.48A19.19,19.19,0,0,1,579.7,37Q582,41.51,582,48.76v20.3h40.6V98.64H582v61.84q0,20.24,16.53,20.23a22.53,22.53,0,0,0,7.68-1.31,45.07,45.07,0,0,0,6.53-2.9,35.34,35.34,0,0,0,5.07-3.33c1.45-1.16,2.47-2,3-2.61a97.18,97.18,0,0,1,6.67,11.05,19.86,19.86,0,0,1,2.32,8.76,11.64,11.64,0,0,1-3,7.47,30.15,30.15,0,0,1-8.55,6.73,53.28,53.28,0,0,1-13.34,5,72.89,72.89,0,0,1-17.11,1.9q-18,0-28-7A37,37,0,0,1,545.77,186.22Z" transform="translate(-0.17 0.13)"/></svg>