<svg id="Layer_1" data-name="Layer 1" xmlns="http://www.w3.org/2000/svg" xmlns:xlink="http://www.w3.org/1999/xlink" viewBox="0 0 85.38 28.69"><defs><style>.cls-1{fill:url(#Gradiente_sem_nome_12);}.cls-2{fill:url(#Gradiente_sem_nome_3);}.cls-3{fill:url(#Gradiente_sem_nome_2);}.cls-4{fill:url(#Gradiente_sem_nome_12-2);}.cls-5{fill:url(#Gradiente_sem_nome_12-3);}.cls-6{fill:url(#Gradiente_sem_nome_12-4);}.cls-7{fill:url(#Gradiente_sem_nome_38);}.cls-8{fill:url(#Gradiente_sem_nome_12-5);}.cls-9{fill:url(#Gradiente_sem_nome_37);}</style><linearGradient id="Gradiente_sem_nome_12" x1="5.93" y1="31.95" x2="10.91" y2="7.64" gradientUnits="userSpaceOnUse"><stop offset="0" stop-color="#0047ab"/><stop offset="0.2" stop-color="#2f7192"/><stop offset="0.59" stop-color="#84bd66"/><stop offset="0.87" stop-color="#b9ed4a"/><stop offset="1" stop-color="#ceff3f"/></linearGradient><linearGradient id="Gradiente_sem_nome_3" x1="23.57" y1="34.56" x2="34.3" y2="8.46" gradientUnits="userSpaceOnUse"><stop offset="0" stop-color="#0047ab"/><stop offset="0.14" stop-color="#044ba9"/><stop offset="0.28" stop-color="#1055a3"/><stop offset="0.42" stop-color="#246798"/><stop offset="0.56" stop-color="#3f808a"/><stop offset="0.7" stop-color="#63a077"/><stop offset="0.84" stop-color="#8fc760"/><stop offset="0.97" stop-color="#c2f545"/><stop offset="1" stop-color="#ceff3f"/></linearGradient><linearGradient id="Gradiente_sem_nome_2" x1="51.31" y1="33.99" x2="51.65" y2="13.22" gradientUnits="userSpaceOnUse"><stop offset="0" stop-color="#0047ab"/><stop offset="0.16" stop-color="#1a5f9d"/><stop offset="0.49" stop-color="#5e9b7a"/><stop offset="0.98" stop-color="#cafb41"/><stop offset="1" stop-color="#ceff3f"/></linearGradient><linearGradient id="Gradiente_sem_nome_12-2" x1="60.79" y1="35.55" x2="67.16" y2="2.24" xlink:href="#Gradiente_sem_nome_12"/><linearGradient id="Gradiente_sem_nome_12-3" x1="29.77" y1="34.35" x2="22.09" y2="13.58" xlink:href="#Gradiente_sem_nome_12"/><linearGradient id="Gradiente_sem_nome_12-4" x1="39.37" y1="35.44" x2="31.54" y2="11.97" xlink:href="#Gradiente_sem_nome_12"/><linearGradient id="Gradiente_sem_nome_38" x1="39.39" y1="25.64" x2="45.83" y2="14.42" gradientUnits="userSpaceOnUse"><stop offset="0.12" stop-color="#212121"/><stop offset="0.23" stop-color="#272727"/><stop offset="0.36" stop-color="#373737"/><stop offset="0.51" stop-color="#515151"/><stop offset="0.61" stop-color="#666"/><stop offset="0.99" stop-color="#ceff3f"/></linearGradient><linearGradient id="Gradiente_sem_nome_12-5" x1="58" y1="20.74" x2="72.75" y2="6.68" xlink:href="#Gradiente_sem_nome_12"/><linearGradient id="Gradiente_sem_nome_37" x1="78.08" y1="32.4" x2="80.5" y2="5.25" gradientUnits="userSpaceOnUse"><stop offset="0.06" stop-color="#2d6f93"/><stop offset="0.3" stop-color="#529080"/><stop offset="0.83" stop-color="#afe44f"/><stop offset="1" stop-color="#ceff3f"/></linearGradient></defs><title>LOGO_SISU_Small</title><path class="cls-1" d="M1.72,23.54c.37.28.77.57,1.21.87a9.71,9.71,0,0,0,1.46.82,10.19,10.19,0,0,0,1.74.61,8.64,8.64,0,0,0,2,.23,6.61,6.61,0,0,0,1.6-.19,4.33,4.33,0,0,0,1.38-.61,3.31,3.31,0,0,0,1-1.07,3.19,3.19,0,0,0,.39-1.64,3.32,3.32,0,0,0-.43-1.72A4.09,4.09,0,0,0,11,19.66a7.27,7.27,0,0,0-1.62-.84c-.61-.24-1.26-.47-1.93-.71-.84-.28-1.67-.59-2.52-.93a8.91,8.91,0,0,1-2.28-1.33A6.24,6.24,0,0,1,1,13.77a7.1,7.1,0,0,1-.64-3.22,7.24,7.24,0,0,1,.74-3.32,6.83,6.83,0,0,1,2-2.4,9.48,9.48,0,0,1,3-1.44A12.85,12.85,0,0,1,9.6,2.9a13.87,13.87,0,0,1,2.4.2,16.74,16.74,0,0,1,2,.47,11.37,11.37,0,0,1,1.48.56,6.15,6.15,0,0,1,.92.53,2,2,0,0,1,1.09,1.75,3,3,0,0,1-.41,1.27,6.74,6.74,0,0,1-1.15,1.58,12,12,0,0,0-2.54-1.48,7.85,7.85,0,0,0-3.27-.7,8,8,0,0,0-1.44.13,4.68,4.68,0,0,0-1.35.47,2.76,2.76,0,0,0-1,.9A2.45,2.45,0,0,0,5.93,10a2.52,2.52,0,0,0,.4,1.43,3.62,3.62,0,0,0,1,1,8.21,8.21,0,0,0,1.54.8l1.81.7c.83.31,1.68.64,2.54,1a9.46,9.46,0,0,1,2.34,1.39A6.4,6.4,0,0,1,18,21.7a8.56,8.56,0,0,1-.73,3.65,7.69,7.69,0,0,1-2,2.67,8.52,8.52,0,0,1-3.1,1.64,13.83,13.83,0,0,1-4,.55,15,15,0,0,1-4.53-.57,13.42,13.42,0,0,1-2.53-1,3.24,3.24,0,0,1-.78-.74,1.63,1.63,0,0,1-.31-1,3.4,3.4,0,0,1,.52-1.6A15.55,15.55,0,0,1,1.72,23.54Z" transform="translate(-0.05 -1.58)"/><path class="cls-2" d="M40.06,29.74H35.93l-3.16-8.47-3.63,8.47H25.4L18.57,11.45A10.07,10.07,0,0,1,20,11.08a6.89,6.89,0,0,1,1.31-.14,3.87,3.87,0,0,1,2.05.51,3.12,3.12,0,0,1,1.27,1.71l3.51,10.53,2.92-6.85-2.18-5.47A8.06,8.06,0,0,1,30.29,11a7.85,7.85,0,0,1,1.27-.1,2.92,2.92,0,0,1,1.73.51,3,3,0,0,1,1.08,1.63L37.72,23.3l2.54-8.81a7.14,7.14,0,0,1,1.21-2.64,2.67,2.67,0,0,1,2.22-.91,6.27,6.27,0,0,1,1.42.14,8.34,8.34,0,0,1,1.27.37Z" transform="translate(-0.05 -1.58)"/><path class="cls-3" d="M54.45,4.85a2.63,2.63,0,0,1-.84,2,2.85,2.85,0,0,1-2,.78,2.81,2.81,0,0,1-2-.78,2.65,2.65,0,0,1-.82-2,2.7,2.7,0,0,1,.82-2,2.74,2.74,0,0,1,2-.8,2.78,2.78,0,0,1,2,.8A2.68,2.68,0,0,1,54.45,4.85Zm0,24.93a2.24,2.24,0,0,1-.7.11c-.36,0-.75,0-1.17,0a6.6,6.6,0,0,1-1.4-.13,2.35,2.35,0,0,1-1.78-1.51,4.23,4.23,0,0,1-.25-1.6V11.09a2.17,2.17,0,0,1,.58-.09,12,12,0,0,1,1.21-.06,6.62,6.62,0,0,1,1.25.12,2.93,2.93,0,0,1,1.13.44,2.51,2.51,0,0,1,.82.94A3.42,3.42,0,0,1,54.41,14Z" transform="translate(-0.05 -1.58)"/><path class="cls-4" d="M71.85,7.23a5.5,5.5,0,0,0-1.66-1.09A5.7,5.7,0,0,0,68,5.71a3.41,3.41,0,0,0-2.36.78,3.4,3.4,0,0,0-.88,2.65V11H71v4H64.71V29.54H59.4V9.3a7.66,7.66,0,0,1,2-5.75,7.9,7.9,0,0,1,5.74-2A13,13,0,0,1,70,1.89a6.81,6.81,0,0,1,2.36.94,1.93,1.93,0,0,1,1,1.63,2.74,2.74,0,0,1-.47,1.33A11.88,11.88,0,0,1,71.85,7.23Z" transform="translate(-0.05 -1.58)"/><path class="cls-5" d="M28.18,23.66v0L24.66,13.16a3.12,3.12,0,0,0-1.27-1.71,3.87,3.87,0,0,0-2.05-.51,6.89,6.89,0,0,0-1.31.14,10.07,10.07,0,0,0-1.46.37L25.4,29.74h3.74l.59-1.39Z" transform="translate(-0.05 -1.58)"/><path class="cls-6" d="M39.86,29.74l-2.13-6.46v0L36,18.14l-1.81-5.45a2.68,2.68,0,0,0-.93-1.24,2.92,2.92,0,0,0-1.73-.51,7.85,7.85,0,0,0-1.27.1,8.06,8.06,0,0,0-1.38.33l2,5.34h0l1.76,4.47.06.09,3.16,8.47Z" transform="translate(-0.05 -1.58)"/><path class="cls-7" d="M54.18,4.85a2.63,2.63,0,0,1-.84,2,2.85,2.85,0,0,1-2,.78,2.81,2.81,0,0,1-2-.78,2.65,2.65,0,0,1-.82-2,2.7,2.7,0,0,1,.82-2,2.74,2.74,0,0,1,2-.8,2.78,2.78,0,0,1,2,.8A2.68,2.68,0,0,1,54.18,4.85Z" transform="translate(-0.05 -1.58)"/><rect class="cls-8" x="64.67" y="9.4" width="6.23" height="4.02"/><path class="cls-9" d="M74,26.85a6.55,6.55,0,0,1-.36-1.66c0-.57-.08-1.15-.08-1.73V5.22l.59-.08a5.35,5.35,0,0,1,.59-.06l.63,0a6.72,6.72,0,0,1,1.26.12,3,3,0,0,1,1.14.47,2.68,2.68,0,0,1,.83,1,3.51,3.51,0,0,1,.31,1.6V11h5.51v4H78.94v8.39c0,1.83.75,2.74,2.24,2.74a3,3,0,0,0,1-.18,7.25,7.25,0,0,0,.88-.39,5.5,5.5,0,0,0,.69-.45l.41-.36a14.34,14.34,0,0,1,.91,1.5,2.81,2.81,0,0,1,.31,1.19,1.6,1.6,0,0,1-.41,1,4.11,4.11,0,0,1-1.16.91,7.05,7.05,0,0,1-1.81.68,9.93,9.93,0,0,1-2.32.26,6.59,6.59,0,0,1-3.8-.95A5,5,0,0,1,74,26.85Z" transform="translate(-0.05 -1.58)"/></svg>