<?xml version="1.0" encoding="utf-8"?>
<!-- Generator: Adobe Illustrator 24.0.2, SVG Export Plug-In . SVG Version: 6.00 Build 0)  -->
<svg version="1.1" id="Layer_1" xmlns="http://www.w3.org/2000/svg" xmlns:xlink="http://www.w3.org/1999/xlink" x="0px" y="0px"
	 viewBox="0 0 85.4 28.7" style="enable-background:new 0 0 85.4 28.7;" xml:space="preserve">
<style type="text/css">
	.st0{fill:#DADADA;}
</style>
<title>LOGO_SISU_Small</title>
<path class="st0" d="M1.7,22c0.4,0.3,0.8,0.6,1.2,0.9c0.5,0.3,1,0.6,1.5,0.8C5,24,5.5,24.2,6.1,24.3c0.7,0.2,1.3,0.2,2,0.2
	c0.5,0,1.1-0.1,1.6-0.2s1-0.3,1.4-0.6c0.4-0.3,0.8-0.6,1-1.1c0.3-0.5,0.4-1.1,0.4-1.6c0-0.6-0.1-1.2-0.4-1.7
	c-0.3-0.5-0.6-0.9-1.1-1.2c-0.5-0.3-1-0.6-1.6-0.8c-0.6-0.2-1.3-0.5-1.9-0.7C6.7,16.3,5.8,16,5,15.7c-0.8-0.3-1.6-0.8-2.3-1.3
	C2,13.8,1.4,13.1,1,12.3c-0.5-1-0.7-2.1-0.6-3.2c0-1.1,0.2-2.3,0.7-3.3c0.5-0.9,1.2-1.8,2-2.4C4,2.6,5,2.1,6,1.8
	c1.1-0.3,2.3-0.5,3.5-0.5c0.8,0,1.6,0.1,2.4,0.2c0.7,0.1,1.3,0.3,2,0.5c0.5,0.2,1,0.3,1.5,0.6c0.3,0.1,0.6,0.3,0.9,0.5
	c0.7,0.3,1.1,1,1.1,1.8c0,0.4-0.2,0.9-0.4,1.3c-0.3,0.6-0.7,1.1-1.2,1.6c-0.8-0.6-1.6-1.1-2.5-1.5c-1-0.5-2.1-0.7-3.3-0.7
	c-0.5,0-1,0-1.4,0.1c-0.4,0-0.9,0.2-1.3,0.4C6.9,6.3,6.5,6.6,6.3,7C6,7.4,5.9,7.9,5.9,8.4s0.1,1,0.4,1.4s0.6,0.7,1,1
	c0.5,0.3,1,0.6,1.5,0.8l1.8,0.7c0.8,0.3,1.7,0.6,2.5,1c0.8,0.3,1.6,0.8,2.3,1.4C17,16,18,18,17.8,20.1c0,1.3-0.2,2.5-0.7,3.6
	c-0.5,1-1.1,1.9-2,2.7c-0.9,0.8-2,1.3-3.1,1.6c-1.3,0.4-2.6,0.6-4,0.5c-1.5,0-3.1-0.1-4.5-0.6c-0.9-0.2-1.7-0.6-2.5-1
	c-0.3-0.2-0.6-0.5-0.8-0.7C0.1,26,0,25.7,0,25.3c0-0.6,0.2-1.1,0.5-1.6C0.8,23.1,1.2,22.5,1.7,22z"/>
<path class="st0" d="M40,28.2h-4.1l-3.2-8.5l-3.6,8.5h-3.7L18.5,9.9c0.5-0.2,1-0.3,1.5-0.4c0.4-0.1,0.9-0.1,1.3-0.1
	c0.7,0,1.4,0.2,2,0.5c0.6,0.4,1.1,1,1.3,1.7l3.5,10.5l2.9-6.9l-2.2-5.5c0.5-0.2,0.9-0.3,1.4-0.4c0.4-0.1,0.8-0.1,1.3-0.1
	c0.6,0,1.2,0.2,1.7,0.5c0.5,0.4,0.9,1,1.1,1.6l3.3,10.3l2.5-8.8c0.2-1,0.6-1.9,1.2-2.6c0.6-0.6,1.4-1,2.2-0.9c0.5,0,1,0,1.4,0.1
	s0.9,0.2,1.3,0.4L40,28.2z"/>
<path class="st0" d="M54.4,3.3c0,0.8-0.3,1.5-0.8,2s-1.3,0.8-2,0.8s-1.5-0.3-2-0.8s-0.8-1.2-0.8-2s0.3-1.5,0.8-2s1.3-0.8,2-0.8
	s1.5,0.3,2,0.8C54.1,1.8,54.4,2.5,54.4,3.3z M54.4,28.2c-0.2,0.1-0.5,0.1-0.7,0.1c-0.4,0-0.8,0-1.2,0c-0.5,0-0.9,0-1.4-0.1
	c-0.8-0.2-1.5-0.7-1.8-1.5c-0.2-0.5-0.3-1.1-0.3-1.6V9.5c0.2-0.1,0.4-0.1,0.6-0.1c0.4,0,0.8-0.1,1.2-0.1s0.8,0,1.3,0.1
	c0.4,0.1,0.8,0.2,1.1,0.4s0.6,0.6,0.8,0.9c0.2,0.5,0.3,1,0.3,1.6L54.4,28.2z"/>
<path class="st0" d="M71.8,5.7c-0.5-0.5-1-0.8-1.7-1.1c-0.7-0.3-1.4-0.4-2.2-0.4c-0.9,0-1.7,0.2-2.4,0.8c-0.7,0.7-1,1.7-0.9,2.6v1.9
	h6.2v4h-6.3V28h-5.3V7.7c-0.2-2.1,0.6-4.2,2-5.8c1.6-1.4,3.6-2.1,5.7-2c1,0,1.9,0.1,2.9,0.3c0.8,0.2,1.6,0.5,2.4,0.9
	c0.6,0.3,1,0.9,1,1.6c0,0.5-0.2,0.9-0.5,1.3C72.5,4.7,72.2,5.2,71.8,5.7z"/>
<path class="st0" d="M28.1,22.1L28.1,22.1l-3.5-10.5c-0.2-0.7-0.7-1.3-1.3-1.7c-0.6-0.4-1.3-0.5-2-0.5c-0.4,0-0.9,0.1-1.3,0.1
	c-0.5,0.1-1,0.2-1.5,0.4l6.8,18.3H29l0.6-1.4L28.1,22.1z"/>
<path class="st0" d="M39.8,28.2l-2.1-6.5l0,0L36,16.6l-1.8-5.4c-0.2-0.5-0.5-0.9-0.9-1.2c-0.5-0.3-1.1-0.5-1.7-0.5
	c-0.4,0-0.9,0-1.3,0.1c-0.5,0.1-0.9,0.2-1.4,0.3l2,5.3l0,0l1.8,4.5l0.1,0.1l3.2,8.5L39.8,28.2z"/>
<path class="st0" d="M54.1,3.3c0,0.8-0.3,1.5-0.8,2s-1.3,0.8-2,0.8s-1.5-0.3-2-0.8s-0.8-1.2-0.8-2s0.3-1.5,0.8-2s1.3-0.8,2-0.8
	s1.5,0.3,2,0.8S54.1,2.5,54.1,3.3z"/>
<rect x="64.7" y="9.4" class="st0" width="6.2" height="4"/>
<path class="st0" d="M73.9,25.3c-0.2-0.5-0.3-1.1-0.4-1.7c0-0.6-0.1-1.1-0.1-1.7V3.6L74,3.5c0.2,0,0.4-0.1,0.6-0.1h0.6
	c0.4,0,0.8,0,1.3,0.1c0.4,0.1,0.8,0.2,1.1,0.5c0.4,0.3,0.6,0.6,0.8,1c0.2,0.5,0.3,1,0.3,1.6v2.7h5.5v4h-5.5v8.4
	c0,1.8,0.8,2.7,2.2,2.7c0.3,0,0.7-0.1,1-0.2s0.6-0.2,0.9-0.4c0.2-0.1,0.5-0.3,0.7-0.5l0.4-0.4c0.3,0.5,0.6,1,0.9,1.5
	c0.2,0.4,0.3,0.8,0.3,1.2c0,0.4-0.2,0.7-0.4,1c-0.3,0.4-0.7,0.7-1.2,0.9c-0.6,0.3-1.2,0.5-1.8,0.7c-0.8,0.2-1.5,0.3-2.3,0.3
	c-1.3,0.1-2.7-0.3-3.8-1C75,27.2,74.3,26.3,73.9,25.3z"/>
</svg>
