<?xml version="1.0" encoding="utf-8"?>
<!-- Generator: Adobe Illustrator 24.0.2, SVG Export Plug-In . SVG Version: 6.00 Build 0)  -->
<svg version="1.1" id="Layer_1" xmlns="http://www.w3.org/2000/svg" xmlns:xlink="http://www.w3.org/1999/xlink" x="0px" y="0px"
	 viewBox="0 0 75 75" style="enable-background:new 0 0 75 75;" xml:space="preserve">
<style type="text/css">
	.st0{fill:url(#SVGID_1_);}
	.st1{fill:url(#SVGID_2_);stroke:#CD2DCD;stroke-miterlimit:10;}
	.st2{fill:#9D239D;}
	.st3{fill:#7D1C7D;}
	.st4{fill:url(#SVGID_3_);}
	.st5{fill:url(#SVGID_4_);}
	.st6{fill:url(#SVGID_5_);}
	.st7{fill:url(#SVGID_6_);}
	.st8{fill:url(#SVGID_7_);}
</style>
<g>
	<linearGradient id="SVGID_1_" gradientUnits="userSpaceOnUse" x1="13.8489" y1="8.3973" x2="61.1511" y2="66.6027">
		<stop  offset="4.475343e-07" style="stop-color:#E99BE9"/>
		<stop  offset="0.1491" style="stop-color:#EA9EEA"/>
		<stop  offset="0.2542" style="stop-color:#ECA7EC"/>
		<stop  offset="0.3455" style="stop-color:#EFB7EF"/>
		<stop  offset="0.4246" style="stop-color:#F4CBF4"/>
		<stop  offset="0.4318" style="stop-color:#F4C9F4"/>
		<stop  offset="0.5329" style="stop-color:#EFB5EF"/>
		<stop  offset="0.6464" style="stop-color:#ECA6EC"/>
		<stop  offset="0.7826" style="stop-color:#EA9EEA"/>
		<stop  offset="1" style="stop-color:#E99BE9"/>
	</linearGradient>
	<circle class="st0" cx="37.5" cy="37.5" r="37.5"/>
	<radialGradient id="SVGID_2_" cx="37.5" cy="37.5" r="30" gradientUnits="userSpaceOnUse">
		<stop  offset="2.184394e-07" style="stop-color:#E99BE9"/>
		<stop  offset="0.3045" style="stop-color:#E99BE9"/>
		<stop  offset="0.4131" style="stop-color:#E794E7"/>
		<stop  offset="0.5665" style="stop-color:#E382E3"/>
		<stop  offset="0.7465" style="stop-color:#DB64DB"/>
		<stop  offset="0.9452" style="stop-color:#D03AD0"/>
		<stop  offset="1" style="stop-color:#CD2DCD"/>
	</radialGradient>
	<circle class="st1" cx="37.5" cy="37.5" r="30"/>
	<polygon class="st2" points="42.1,25.1 32.5,25.1 29,30.5 45.6,30.5 	"/>
	<polygon class="st3" points="47.2,30.5 37.5,30.5 27.8,30.5 22.5,37.5 27.8,44.5 37.5,44.5 47.2,44.5 52.5,37.5 	"/>
	<linearGradient id="SVGID_3_" gradientUnits="userSpaceOnUse" x1="33.4758" y1="21.6269" x2="41.5242" y2="21.6269">
		<stop  offset="1.225392e-06" style="stop-color:#BD2ABD"/>
		<stop  offset="0.882" style="stop-color:#BD2ABD"/>
		<stop  offset="1" style="stop-color:#BD2ABD"/>
	</linearGradient>
	<polygon class="st4" points="37.5,18.1 33.5,25.1 41.5,25.1 	"/>
	<linearGradient id="SVGID_4_" gradientUnits="userSpaceOnUse" x1="33.4758" y1="53.3731" x2="41.5242" y2="53.3731">
		<stop  offset="1.225392e-06" style="stop-color:#BD2ABD"/>
		<stop  offset="0.882" style="stop-color:#BD2ABD"/>
		<stop  offset="1" style="stop-color:#BD2ABD"/>
	</linearGradient>
	<polygon class="st5" points="37.5,56.9 33.5,49.9 41.5,49.9 	"/>
	<polygon class="st2" points="42.3,49.9 32.7,49.9 29.2,44.5 45.8,44.5 	"/>
	<g>
		<linearGradient id="SVGID_5_" gradientUnits="userSpaceOnUse" x1="29.6131" y1="27.7952" x2="45.3869" y2="47.2048">
			<stop  offset="1.001624e-06" style="stop-color:#CD2DCD"/>
			<stop  offset="0.882" style="stop-color:#CD2DCD"/>
			<stop  offset="1" style="stop-color:#CD2DCD"/>
		</linearGradient>
		<polygon class="st6" points="37.5,21.4 29,37.5 37.5,53.6 46,37.5 		"/>
		<radialGradient id="SVGID_6_" cx="37.5" cy="37.5" r="10.9285" gradientUnits="userSpaceOnUse">
			<stop  offset="8.950686e-07" style="stop-color:#2D0A2D"/>
			<stop  offset="0.4646" style="stop-color:#2D0A2D"/>
			<stop  offset="0.7213" style="stop-color:#460F46"/>
			<stop  offset="1" style="stop-color:#5D145D"/>
		</radialGradient>
		<polygon class="st7" points="37.5,23.5 30.1,37.5 37.5,51.5 44.9,37.5 		"/>
	</g>
	<g>
		
			<image style="overflow:visible;opacity:0.33;" width="313" height="313" xlink:href="8784AF67.png"  transform="matrix(0.24 0 0 0.24 -0.12 -0.12)">
		</image>
		<g>
			
				<image style="overflow:visible;opacity:0.76;" width="110" height="110" xlink:href="8784AF65.png"  transform="matrix(0.24 0 0 0.24 24.36 24.36)">
			</image>
			<g>
				<radialGradient id="SVGID_7_" cx="37.5" cy="37.5" r="4.0532" gradientUnits="userSpaceOnUse">
					<stop  offset="0" style="stop-color:#FFFFFF"/>
					<stop  offset="0.1793" style="stop-color:#FAE8FA"/>
					<stop  offset="0.5428" style="stop-color:#F1BEF1"/>
					<stop  offset="0.8288" style="stop-color:#EBA5EB"/>
					<stop  offset="1" style="stop-color:#E99BE9"/>
				</radialGradient>
				<polygon class="st8" points="37.5,33.4 38.9,36.1 41.6,37.5 38.9,38.9 37.5,41.6 36.1,38.9 33.4,37.5 36.1,36.1 				"/>
			</g>
		</g>
	</g>
</g>
</svg>
