<?xml version="1.0" encoding="utf-8"?>
<!-- Generator: Adobe Illustrator 24.0.2, SVG Export Plug-In . SVG Version: 6.00 Build 0)  -->
<svg version="1.1" id="Layer_1" xmlns="http://www.w3.org/2000/svg" xmlns:xlink="http://www.w3.org/1999/xlink" x="0px" y="0px"
	 viewBox="0 0 75 75" style="enable-background:new 0 0 75 75;" xml:space="preserve">
<style type="text/css">
	.st0{fill:url(#SVGID_1_);stroke:#A7A7A7;stroke-miterlimit:10;}
	.st1{fill:url(#SVGID_2_);stroke:#A7A7A7;stroke-width:0.25;stroke-miterlimit:10;}
	.st2{fill:url(#SVGID_3_);stroke:#A7A7A7;stroke-width:0.25;stroke-miterlimit:10;}
	.st3{fill:url(#SVGID_4_);}
</style>
<g>
	<radialGradient id="SVGID_1_" cx="37.5" cy="37.5" r="30" gradientUnits="userSpaceOnUse">
		<stop  offset="1.065558e-07" style="stop-color:#CDCDCD"/>
		<stop  offset="0.3045" style="stop-color:#CDCDCD"/>
		<stop  offset="0.5234" style="stop-color:#C6C6C6"/>
		<stop  offset="0.8316" style="stop-color:#B4B4B4"/>
		<stop  offset="1" style="stop-color:#A7A7A7"/>
	</radialGradient>
	<circle class="st0" cx="37.5" cy="37.5" r="30"/>
	<linearGradient id="SVGID_2_" gradientUnits="userSpaceOnUse" x1="8.5865" y1="37.5278" x2="66.4135" y2="37.5278">
		<stop  offset="2.237672e-07" style="stop-color:#8A8A8A"/>
		<stop  offset="0.5019" style="stop-color:#717171"/>
		<stop  offset="0.7061" style="stop-color:#777777"/>
		<stop  offset="0.9873" style="stop-color:#898989"/>
		<stop  offset="1" style="stop-color:#8A8A8A"/>
	</linearGradient>
	<polygon class="st1" points="66.4,27.1 64.4,18.8 37.3,45.8 11.7,20.3 8.6,27.6 37.3,56.3 42.5,51.1 42.5,51.1 	"/>
	<linearGradient id="SVGID_3_" gradientUnits="userSpaceOnUse" x1="13.6481" y1="25.5" x2="61.3519" y2="25.5">
		<stop  offset="0" style="stop-color:#8A8A8A"/>
		<stop  offset="0.5019" style="stop-color:#717171"/>
		<stop  offset="0.7061" style="stop-color:#777777"/>
		<stop  offset="0.9873" style="stop-color:#898989"/>
		<stop  offset="1" style="stop-color:#8A8A8A"/>
	</linearGradient>
	<polygon class="st2" points="61.4,16.2 56.1,11 37.5,29.6 18.9,11 13.6,16.2 37.5,40 42.7,34.8 42.7,34.8 	"/>
	<linearGradient id="SVGID_4_" gradientUnits="userSpaceOnUse" x1="13.8489" y1="8.3973" x2="61.1511" y2="66.6027">
		<stop  offset="2.237672e-07" style="stop-color:#CDCDCD"/>
		<stop  offset="0.1626" style="stop-color:#D0D0D0"/>
		<stop  offset="0.2772" style="stop-color:#D9D9D9"/>
		<stop  offset="0.3767" style="stop-color:#E9E9E9"/>
		<stop  offset="0.4246" style="stop-color:#F3F3F3"/>
		<stop  offset="0.495" style="stop-color:#E7E7E7"/>
		<stop  offset="0.6178" style="stop-color:#D8D8D8"/>
		<stop  offset="0.765" style="stop-color:#D0D0D0"/>
		<stop  offset="1" style="stop-color:#CDCDCD"/>
	</linearGradient>
	<path class="st3" d="M37.5,0C16.8,0,0,16.8,0,37.5S16.8,75,37.5,75C58.2,75,75,58.2,75,37.5S58.2,0,37.5,0z M37.5,67.5
		c-16.6,0-30-13.4-30-30s13.4-30,30-30s30,13.4,30,30S54.1,67.5,37.5,67.5z"/>
</g>
</svg>
