<?xml version="1.0" encoding="utf-8"?>
<!-- Generator: Adobe Illustrator 24.0.2, SVG Export Plug-In . SVG Version: 6.00 Build 0)  -->
<svg version="1.1" id="Layer_1" xmlns="http://www.w3.org/2000/svg" xmlns:xlink="http://www.w3.org/1999/xlink" x="0px" y="0px"
	 viewBox="0 0 75 75" style="enable-background:new 0 0 75 75;" xml:space="preserve">
<style type="text/css">
	.st0{fill:url(#SVGID_1_);stroke:#7B4C1E;stroke-miterlimit:10;}
	.st1{fill:url(#SVGID_2_);stroke:#7B4C1E;stroke-width:0.25;stroke-miterlimit:10;}
	.st2{fill:url(#SVGID_3_);stroke:#7B4C1E;stroke-width:0.25;stroke-miterlimit:10;}
	.st3{fill:url(#SVGID_4_);}
</style>
<g>
	<g>
		<radialGradient id="SVGID_1_" cx="37.5" cy="37.5" r="30" gradientUnits="userSpaceOnUse">
			<stop  offset="0" style="stop-color:#B9722D"/>
			<stop  offset="0.3045" style="stop-color:#B9722D"/>
			<stop  offset="0.463" style="stop-color:#B26E2B"/>
			<stop  offset="0.6867" style="stop-color:#A06327"/>
			<stop  offset="0.9481" style="stop-color:#825020"/>
			<stop  offset="1" style="stop-color:#7B4C1E"/>
		</radialGradient>
		<circle class="st0" cx="37.5" cy="37.5" r="30"/>
	</g>
	
		<linearGradient id="SVGID_2_" gradientUnits="userSpaceOnUse" x1="-444.664" y1="-305.2286" x2="-457.0256" y2="-238.041" gradientTransform="matrix(-0.3907 -0.9205 -0.9205 0.3907 -388.2297 -267.655)">
		<stop  offset="0" style="stop-color:#7B4C1E"/>
		<stop  offset="0.1561" style="stop-color:#75481D"/>
		<stop  offset="0.3596" style="stop-color:#653E19"/>
		<stop  offset="0.4953" style="stop-color:#563515"/>
		<stop  offset="0.6476" style="stop-color:#623D18"/>
		<stop  offset="1" style="stop-color:#7B4C1E"/>
	</linearGradient>
	<path class="st1" d="M11.4,57.1l7,5.6c0.5-0.6,0.9-0.4,1.6-1.9C26.5,44.5,49.5,35,66.8,27c0.3-0.9-1.5-2-1.2-2.9
		c-11.7,3.3-20.3,6.2-28.5,10C27.1,38.7,19.3,45.6,11.4,57.1z"/>
	
		<linearGradient id="SVGID_3_" gradientUnits="userSpaceOnUse" x1="-399.0916" y1="-254.4241" x2="-411.4532" y2="-187.2365" gradientTransform="matrix(-0.4848 -0.8746 -0.8746 0.4848 -343.3455 -199.0653)">
		<stop  offset="0" style="stop-color:#7B4C1E"/>
		<stop  offset="0.1561" style="stop-color:#75481D"/>
		<stop  offset="0.3596" style="stop-color:#653E19"/>
		<stop  offset="0.4953" style="stop-color:#563515"/>
		<stop  offset="0.6476" style="stop-color:#623D18"/>
		<stop  offset="1" style="stop-color:#7B4C1E"/>
	</linearGradient>
	<path class="st2" d="M21.5,66.9l7.5,4.8c0.5-0.7,0.9-0.5,1.4-2.1C35.2,52.8,53.7,42.8,70,33.1c0.2-0.9,1.7-3.7,1.9-4.6
		c-11.3,4.5-19.5,8.2-27.3,12.9C35.2,47,28.2,54.7,21.5,66.9z"/>
	<linearGradient id="SVGID_4_" gradientUnits="userSpaceOnUse" x1="13.8489" y1="8.3973" x2="61.1511" y2="66.6027">
		<stop  offset="0" style="stop-color:#B9722D"/>
		<stop  offset="0.1515" style="stop-color:#BB7430"/>
		<stop  offset="0.2583" style="stop-color:#C17C39"/>
		<stop  offset="0.351" style="stop-color:#CB8949"/>
		<stop  offset="0.4246" style="stop-color:#D7985B"/>
		<stop  offset="0.5262" style="stop-color:#CA8747"/>
		<stop  offset="0.6414" style="stop-color:#C07B38"/>
		<stop  offset="0.7795" style="stop-color:#BB7430"/>
		<stop  offset="1" style="stop-color:#B9722D"/>
	</linearGradient>
	<path class="st3" d="M37.5,0C16.8,0,0,16.8,0,37.5S16.8,75,37.5,75S75,58.2,75,37.5S58.2,0,37.5,0z M37.5,67.5
		c-16.6,0-30-13.4-30-30s13.4-30,30-30s30,13.4,30,30S54.1,67.5,37.5,67.5z"/>
</g>
</svg>
