<?xml version="1.0" encoding="utf-8"?>
<!-- Generator: Adobe Illustrator 24.0.2, SVG Export Plug-In . SVG Version: 6.00 Build 0)  -->
<svg version="1.1" id="Layer_1" xmlns="http://www.w3.org/2000/svg" xmlns:xlink="http://www.w3.org/1999/xlink" x="0px" y="0px"
	 viewBox="0 0 75 75" style="enable-background:new 0 0 75 75;" xml:space="preserve">
<style type="text/css">
	.st0{fill:url(#SVGID_1_);stroke:#79B637;stroke-miterlimit:10;}
	.st1{fill:url(#SVGID_2_);}
	.st2{fill:url(#SVGID_3_);}
	.st3{fill:url(#SVGID_4_);}
	.st4{fill:url(#SVGID_5_);}
	.st5{fill:url(#SVGID_6_);}
	.st6{fill:url(#SVGID_7_);}
	.st7{fill:url(#SVGID_8_);}
	.st8{fill:#C7F942;}
	.st9{fill:url(#SVGID_9_);}
	.st10{fill:url(#SVGID_10_);}
	.st11{fill:url(#SVGID_11_);}
</style>
<g>
	<radialGradient id="SVGID_1_" cx="37.5" cy="37.5" r="30" gradientUnits="userSpaceOnUse">
		<stop  offset="7.831850e-07" style="stop-color:#BCDF97"/>
		<stop  offset="0.1708" style="stop-color:#B7DC90"/>
		<stop  offset="0.412" style="stop-color:#ABD47E"/>
		<stop  offset="0.6949" style="stop-color:#95C760"/>
		<stop  offset="1" style="stop-color:#79B637"/>
	</radialGradient>
	<circle class="st0" cx="37.5" cy="37.5" r="30"/>
	<linearGradient id="SVGID_2_" gradientUnits="userSpaceOnUse" x1="13.8489" y1="8.3973" x2="61.1511" y2="66.6027">
		<stop  offset="6.713014e-07" style="stop-color:#C7F942"/>
		<stop  offset="0.1311" style="stop-color:#C7F945"/>
		<stop  offset="0.2235" style="stop-color:#C7F94E"/>
		<stop  offset="0.3039" style="stop-color:#C7F95E"/>
		<stop  offset="0.3772" style="stop-color:#C7F973"/>
		<stop  offset="0.4246" style="stop-color:#C7F986"/>
		<stop  offset="0.4357" style="stop-color:#C4F784"/>
		<stop  offset="0.5361" style="stop-color:#B0E472"/>
		<stop  offset="0.6488" style="stop-color:#A1D765"/>
		<stop  offset="0.7841" style="stop-color:#99CF5D"/>
		<stop  offset="1" style="stop-color:#96CD5B"/>
	</linearGradient>
	<path class="st1" d="M37.5,0C16.8,0,0,16.8,0,37.5C0,58.2,16.8,75,37.5,75S75,58.2,75,37.5C75,16.8,58.2,0,37.5,0z M37.5,67.5
		c-16.6,0-30-13.4-30-30s13.4-30,30-30s30,13.4,30,30S54.1,67.5,37.5,67.5z"/>
	<g>
		
			<image style="overflow:visible;opacity:0.71;" width="310" height="328" xlink:href="477416D2.png"  transform="matrix(0.24 0 0 0.24 0.24 -1.92)">
		</image>
		<g>
			<g>
				<g>
					<linearGradient id="SVGID_3_" gradientUnits="userSpaceOnUse" x1="35.172" y1="22.9975" x2="41.1295" y2="52.7847">
						<stop  offset="2.237672e-07" style="stop-color:#476B20"/>
						<stop  offset="1" style="stop-color:#65982E"/>
					</linearGradient>
					<path class="st2" d="M53,31.7L53,31.7L53,31.7l-7.1-7.1l0,0l-8.3-8.3l-8.3,8.3l0,0l-7.2,7.2l0.1,0l-0.1,0l7.2,7.2l-5.8,5.8
						l4.2,4.2l5.8-5.8l4.2,4.2l0,0l0,0l4.2-4.2l5.8,5.8l4.2-4.2l-5.8-5.8L53,31.7z M37.5,24.5L37.5,24.5L37.5,24.5L37.5,24.5
						l3.9,3.9l-3.9-1.1l-3.9,1.1L37.5,24.5L37.5,24.5z M37.5,38.9L37.5,38.9L37.5,38.9L33.7,35l3.9,1.1l3.9-1.1L37.5,38.9L37.5,38.9
						L37.5,38.9z"/>
					<linearGradient id="SVGID_4_" gradientUnits="userSpaceOnUse" x1="32.2401" y1="23.5839" x2="38.1976" y2="53.3711">
						<stop  offset="2.237672e-07" style="stop-color:#476B20"/>
						<stop  offset="1" style="stop-color:#65982E"/>
					</linearGradient>
					<polygon class="st3" points="37.5,50.5 33,45.9 28.8,50.1 37.5,58.8 37.5,58.8 37.5,58.8 46.2,50.1 42.1,45.9 					"/>
					<linearGradient id="SVGID_5_" gradientUnits="userSpaceOnUse" x1="48.0997" y1="20.412" x2="54.0571" y2="50.1992">
						<stop  offset="2.237672e-07" style="stop-color:#476B20"/>
						<stop  offset="1" style="stop-color:#65982E"/>
					</linearGradient>
					<polygon class="st4" points="48.5,39.6 52.6,43.7 55,37.8 52.6,35.4 					"/>
					<linearGradient id="SVGID_6_" gradientUnits="userSpaceOnUse" x1="20.8419" y1="25.8635" x2="26.7993" y2="55.6508">
						<stop  offset="2.237672e-07" style="stop-color:#476B20"/>
						<stop  offset="1" style="stop-color:#65982E"/>
					</linearGradient>
					<polygon class="st5" points="22.5,35.4 20.1,37.8 22.5,43.7 26.7,39.6 					"/>
					<linearGradient id="SVGID_7_" gradientUnits="userSpaceOnUse" x1="18.5816" y1="26.3156" x2="24.5391" y2="56.1028">
						<stop  offset="2.237672e-07" style="stop-color:#476B20"/>
						<stop  offset="1" style="stop-color:#65982E"/>
					</linearGradient>
					<polygon class="st6" points="21.6,34.5 18.7,31.7 18.4,32 20.2,35.8 					"/>
					<linearGradient id="SVGID_8_" gradientUnits="userSpaceOnUse" x1="52.3017" y1="19.5716" x2="58.2591" y2="49.3588">
						<stop  offset="2.237672e-07" style="stop-color:#476B20"/>
						<stop  offset="1" style="stop-color:#65982E"/>
					</linearGradient>
					<polygon class="st7" points="56.6,32 56.3,31.7 53.4,34.5 54.8,35.8 					"/>
				</g>
				<g>
					<polygon class="st8" points="37.5,27.3 41.4,28.4 37.5,24.5 33.7,28.4 					"/>
					<polygon class="st8" points="37.5,24.5 37.5,24.5 37.5,24.5 37.5,24.5 					"/>
					<polygon class="st8" points="41.3,35 37.5,36.1 33.7,35 37.5,38.8 					"/>
				</g>
			</g>
		</g>
	</g>
	<g>
		
			<image style="overflow:visible;opacity:0.33;" width="308" height="309" xlink:href="477416D6.png"  transform="matrix(0.24 0 0 0.24 0.6 -5.4)">
		</image>
		<g>
			
				<image style="overflow:visible;opacity:0.76;" width="106" height="105" xlink:href="477416D1.png"  transform="matrix(0.24 0 0 0.24 24.84 19.08)">
			</image>
			<g>
				<radialGradient id="SVGID_9_" cx="37.5464" cy="31.6524" r="3.5124" gradientUnits="userSpaceOnUse">
					<stop  offset="0" style="stop-color:#FFFFFF"/>
					<stop  offset="0.224" style="stop-color:#EFFDC9"/>
					<stop  offset="0.4889" style="stop-color:#DEFB8F"/>
					<stop  offset="0.7161" style="stop-color:#D1FA65"/>
					<stop  offset="0.8937" style="stop-color:#CAF94C"/>
					<stop  offset="1" style="stop-color:#C7F942"/>
				</radialGradient>
				<polygon class="st9" points="37.5,28.1 38.8,30.4 41.1,31.7 38.8,32.9 37.5,35.2 36.3,32.9 34,31.7 36.3,30.4 				"/>
			</g>
		</g>
	</g>
	<g>
		
			<image style="overflow:visible;opacity:0.33;" width="292" height="292" xlink:href="477416D3.png"  transform="matrix(0.24 0 0 0.24 8.76 -3.48)">
		</image>
		<g>
			
				<image style="overflow:visible;opacity:0.76;" width="89" height="89" xlink:href="477416D0.png"  transform="matrix(0.24 0 0 0.24 33.24 21)">
			</image>
			<g>
				<radialGradient id="SVGID_10_" cx="43.8741" cy="31.6524" r="1.4876" gradientUnits="userSpaceOnUse">
					<stop  offset="0" style="stop-color:#FFFFFF"/>
					<stop  offset="0.224" style="stop-color:#EFFDC9"/>
					<stop  offset="0.4889" style="stop-color:#DEFB8F"/>
					<stop  offset="0.7161" style="stop-color:#D1FA65"/>
					<stop  offset="0.8937" style="stop-color:#CAF94C"/>
					<stop  offset="1" style="stop-color:#C7F942"/>
				</radialGradient>
				<polygon class="st10" points="43.9,30.2 44.4,31.1 45.4,31.7 44.4,32.2 43.9,33.1 43.3,32.2 42.4,31.7 43.3,31.1 				"/>
			</g>
		</g>
	</g>
	<g>
		
			<image style="overflow:visible;opacity:0.33;" width="292" height="292" xlink:href="477416DE.png"  transform="matrix(0.24 0 0 0.24 -3.72 -3.48)">
		</image>
		<g>
			
				<image style="overflow:visible;opacity:0.76;" width="88" height="89" xlink:href="477416D5.png"  transform="matrix(0.24 0 0 0.24 20.76 21)">
			</image>
			<g>
				<radialGradient id="SVGID_11_" cx="31.3132" cy="31.6524" r="1.4876" gradientUnits="userSpaceOnUse">
					<stop  offset="0" style="stop-color:#FFFFFF"/>
					<stop  offset="0.224" style="stop-color:#EFFDC9"/>
					<stop  offset="0.4889" style="stop-color:#DEFB8F"/>
					<stop  offset="0.7161" style="stop-color:#D1FA65"/>
					<stop  offset="0.8937" style="stop-color:#CAF94C"/>
					<stop  offset="1" style="stop-color:#C7F942"/>
				</radialGradient>
				<polygon class="st11" points="31.3,30.2 31.8,31.1 32.8,31.7 31.8,32.2 31.3,33.1 30.8,32.2 29.8,31.7 30.8,31.1 				"/>
			</g>
		</g>
	</g>
</g>
</svg>
